<svg width="17" height="16" viewBox="0 0 17 16" fill="none" xmlns="http://www.w3.org/2000/svg">
<g clip-path="url(#clip0_15_406)">
<g opacity="0.4">
<path d="M12.3086 4.03205C11.418 3.13798 10.251 2.57162 8.9975 2.42513C7.74403 2.27864 6.47788 2.56065 5.40507 3.22526C4.33225 3.88988 3.51592 4.89798 3.0889 6.08554C2.66188 7.27309 2.6493 8.57021 3.05321 9.76582C3.45713 10.9614 4.25376 11.9852 5.31348 12.6705C6.37321 13.3558 7.63365 13.6623 8.88973 13.5401C10.1458 13.418 11.3236 12.8743 12.2314 11.9977C13.1392 11.1211 13.7237 9.96301 13.8896 8.71197L13.8997 8.63163C13.912 8.455 13.9904 8.2895 14.1194 8.16822C14.2484 8.04694 14.4185 7.9788 14.5955 7.97742C14.9585 7.97742 15.2425 8.27296 15.2225 8.63306C15.2225 8.63306 15.2397 8.47668 15.2139 8.72058C15.0451 10.28 14.3504 11.7356 13.2442 12.8476C12.138 13.9596 10.6861 14.6619 9.12754 14.8388C7.56899 15.0157 5.99666 14.6566 4.66934 13.8208C3.34203 12.985 2.33884 11.7222 1.8249 10.2402C1.31096 8.75822 1.31689 7.14543 1.84173 5.66729C2.36656 4.18914 3.37901 2.93373 4.71244 2.10769C6.04587 1.28165 7.6208 0.934218 9.17801 1.12257C10.7352 1.31093 12.1819 2.02385 13.2799 3.14399V1.72796C13.2801 1.64158 13.2973 1.55608 13.3305 1.47634C13.3638 1.39661 13.4124 1.3242 13.4736 1.26325C13.5348 1.2023 13.6074 1.154 13.6873 1.12112C13.7672 1.08824 13.8528 1.07141 13.9391 1.0716C14.0255 1.07178 14.111 1.08899 14.1908 1.12222C14.2705 1.15545 14.3429 1.20406 14.4039 1.26528C14.4648 1.32649 14.5131 1.39911 14.546 1.47899C14.5789 1.55887 14.5957 1.64445 14.5955 1.73083V4.68914C14.5955 4.86378 14.5261 5.03128 14.4026 5.15478C14.2791 5.27827 14.1116 5.34765 13.937 5.34765H10.9801C10.8937 5.34784 10.8082 5.33101 10.7283 5.29813C10.6484 5.26525 10.5758 5.21695 10.5146 5.156C10.3909 5.03291 10.3213 4.86575 10.3209 4.69129C10.3205 4.51683 10.3894 4.34936 10.5125 4.22573C10.6356 4.1021 10.8028 4.03243 10.9773 4.03205H12.3086Z" fill="#21243D"/>
</g>
</g>
<defs>
<clipPath id="clip0_15_406">
<rect width="15.7815" height="15.7815" fill="white" transform="translate(0.458008 0.0866852)"/>
</clipPath>
</defs>
</svg>
