<svg width="90" height="87" viewBox="0 0 90 87" fill="none" xmlns="http://www.w3.org/2000/svg">
<path d="M45 0C39.2001 0 33.4571 1.14236 28.0987 3.36186C22.7404 5.58136 17.8717 8.83453 13.7706 12.9356C5.48805 21.2182 0.834961 32.4517 0.834961 44.165C0.834961 63.6859 13.5103 80.2478 31.0438 86.1217C33.2521 86.4751 33.9587 85.106 33.9587 83.9135V76.4496C21.725 79.0995 19.1193 70.5315 19.1193 70.5315C17.0877 65.4084 14.217 64.0393 14.217 64.0393C10.1979 61.301 14.5261 61.3894 14.5261 61.3894C18.9426 61.6985 21.2834 65.9383 21.2834 65.9383C25.1257 72.6514 31.618 70.664 34.1354 69.604C34.5329 66.7333 35.6811 64.7901 36.9178 63.6859C27.1131 62.5818 16.8227 58.7836 16.8227 41.9567C16.8227 37.0544 18.501 33.1237 21.3717 29.988C20.93 28.8839 19.3843 24.2908 21.8133 18.3285C21.8133 18.3285 25.5232 17.136 33.9587 22.8333C37.4477 21.8617 41.2459 21.3759 45 21.3759C48.754 21.3759 52.5522 21.8617 56.0412 22.8333C64.4767 17.136 68.1866 18.3285 68.1866 18.3285C70.6157 24.2908 69.0699 28.8839 68.6282 29.988C71.499 33.1237 73.1772 37.0544 73.1772 41.9567C73.1772 58.8278 62.8426 62.5376 52.9938 63.6418C54.5838 65.0109 56.0412 67.7049 56.0412 71.8123V83.9135C56.0412 85.106 56.7479 86.5192 59.0003 86.1217C76.5338 80.2036 89.165 63.6859 89.165 44.165C89.165 38.3652 88.0226 32.6221 85.8031 27.2638C83.5836 21.9054 80.3304 17.0367 76.2293 12.9356C72.1282 8.83453 67.2595 5.58136 61.9012 3.36186C56.5428 1.14236 50.7998 0 45 0Z" fill="#676C72"/>
</svg>
