<svg width="62" height="61" viewBox="0 0 62 61" fill="none" xmlns="http://www.w3.org/2000/svg">
<path d="M55.6759 25.3433H53.643V25.2386H30.9287V35.3338H45.192C43.1111 41.2105 37.5196 45.4291 30.9287 45.4291C22.5661 45.4291 15.7859 38.6489 15.7859 30.2862C15.7859 21.9236 22.5661 15.1434 30.9287 15.1434C34.7889 15.1434 38.3008 16.5996 40.9747 18.9783L48.1133 11.8397C43.6058 7.63882 37.5764 5.04813 30.9287 5.04813C16.991 5.04813 5.69061 16.3485 5.69061 30.2862C5.69061 44.224 16.991 55.5243 30.9287 55.5243C44.8664 55.5243 56.1668 44.224 56.1668 30.2862C56.1668 28.594 55.9927 26.9422 55.6759 25.3433Z" fill="#FFC107"/>
<path d="M8.60059 18.5392L16.8926 24.6203C19.1362 19.0654 24.57 15.1434 30.9287 15.1434C34.7889 15.1434 38.3008 16.5996 40.9748 18.9783L48.1133 11.8397C43.6058 7.63882 37.5764 5.04813 30.9287 5.04813C21.2348 5.04813 12.828 10.521 8.60059 18.5392Z" fill="#FF3D00"/>
<path d="M30.9284 55.5241C37.4474 55.5241 43.3707 53.0293 47.8492 48.9723L40.038 42.3624C37.419 44.3542 34.2187 45.4315 30.9284 45.4289C24.3639 45.4289 18.7901 41.2431 16.6903 35.4018L8.46014 41.7428C12.637 49.9162 21.1196 55.5241 30.9284 55.5241Z" fill="#4CAF50"/>
<path d="M55.6758 25.3431H53.6429V25.2383H30.9286V35.3335H45.1919C44.1965 38.1305 42.4035 40.5745 40.0345 42.3636L40.0383 42.3611L47.8495 48.971C47.2968 49.4732 56.1667 42.905 56.1667 30.2859C56.1667 28.5937 55.9925 26.9419 55.6758 25.3431Z" fill="#1976D2"/>
</svg>
