<svg width="411" height="54" viewBox="0 0 411 54" fill="none" xmlns="http://www.w3.org/2000/svg">
<path d="M132.286 27.6637C132.286 31.7809 131.099 35.1064 128.644 37.5609C125.873 40.4904 122.31 41.9156 117.797 41.9156C113.521 41.9156 109.879 40.4112 106.87 37.4817C103.861 34.4729 102.436 30.8308 102.436 26.476C102.436 22.1212 103.941 18.4791 106.87 15.4703C109.879 12.4616 113.442 11.0364 117.797 11.0364C119.935 11.0364 121.993 11.4323 123.973 12.224C125.873 13.0158 127.456 14.0451 128.723 15.4703L126.031 18.1624C125.16 17.0539 123.973 16.1829 122.468 15.5495C121.043 14.9161 119.459 14.5994 117.797 14.5994C114.55 14.5994 111.858 15.7078 109.641 17.9248C107.424 20.221 106.316 22.9922 106.316 26.3968C106.316 29.8015 107.424 32.5727 109.641 34.8688C111.858 37.0858 114.63 38.1943 117.797 38.1943C120.726 38.1943 123.181 37.4025 125.16 35.7398C127.14 34.077 128.248 31.7809 128.565 28.9305H117.797V25.3675H132.128C132.207 26.2385 132.286 26.9511 132.286 27.6637Z" fill="#676C72"/>
<path d="M136.958 41.2822V11.749H145.984C150.497 11.749 154.139 13.0951 156.831 15.8663C159.602 18.5583 160.948 22.1213 160.948 26.5552C160.948 30.9892 159.602 34.5522 156.831 37.2442C154.06 39.9362 150.497 41.2822 145.984 41.2822H136.958ZM140.758 15.3912V37.6401H145.984C149.388 37.6401 152.16 36.6899 154.139 34.7105C156.118 32.7311 157.148 30.039 157.148 26.5552C157.148 23.0714 156.118 20.3794 154.139 18.3999C152.16 16.4205 149.468 15.3912 145.984 15.3912H140.758Z" fill="#676C72"/>
<path d="M193.886 27.6637C193.886 31.7809 192.698 35.1064 190.244 37.5609C187.473 40.4904 183.91 41.9156 179.397 41.9156C175.121 41.9156 171.479 40.4112 168.47 37.4817C165.461 34.4729 164.036 30.8308 164.036 26.476C164.036 22.1212 165.54 18.4791 168.47 15.4703C171.479 12.4616 175.042 11.0364 179.397 11.0364C181.534 11.0364 183.593 11.4323 185.572 12.224C187.473 13.0158 189.056 14.0451 190.323 15.4703L187.631 18.1624C186.76 17.0539 185.572 16.1829 184.068 15.5495C182.643 14.9161 181.059 14.5994 179.397 14.5994C176.15 14.5994 173.458 15.7078 171.241 17.9248C169.024 20.221 167.916 22.9922 167.916 26.3968C167.916 29.8015 169.024 32.5727 171.241 34.8688C173.458 37.0858 176.229 38.1943 179.397 38.1943C182.326 38.1943 184.781 37.4025 186.76 35.7398C188.74 34.077 189.848 31.7809 190.165 28.9305H179.397V25.3675H193.728C193.807 26.2385 193.886 26.9511 193.886 27.6637Z" fill="#676C72"/>
<path d="M208.06 41.2822H203.863L215.027 11.749H219.303L230.467 41.2822H226.271L223.42 33.2853H210.989L208.06 41.2822ZM217.086 16.4205L212.256 29.7223H222.074L217.244 16.4205H217.086Z" fill="#676C72"/>
<path d="M237.038 11.749V41.2822H233.237V11.749H237.038Z" fill="#676C72"/>
<path d="M250.419 50.8627C249.311 50.8627 248.202 50.7043 247.252 50.4668C246.223 50.1501 245.352 49.7542 244.56 49.2791C243.768 48.7249 243.056 48.1706 242.502 47.458C241.947 46.7454 241.472 45.9537 241.156 45.0827L244.719 43.5783C245.114 44.766 245.827 45.7161 246.856 46.4287C247.886 47.1413 249.073 47.5372 250.419 47.5372C252.478 47.5372 254.061 46.9038 255.249 45.7161C256.437 44.4493 256.991 42.7865 256.991 40.5696V38.6693H256.833C256.12 39.7778 255.17 40.5696 253.903 41.203C252.715 41.8364 251.369 42.1531 249.944 42.1531C247.331 42.1531 245.035 41.1238 243.135 39.0652C241.235 36.9274 240.364 34.3937 240.364 31.385C240.364 28.3762 241.314 25.8425 243.135 23.7839C245.035 21.7253 247.331 20.6168 249.944 20.6168C251.369 20.6168 252.715 20.9335 253.903 21.5669C255.091 22.2004 256.12 23.0713 256.833 24.1006H256.991V21.3294H260.633V40.6488C260.633 43.895 259.683 46.4287 257.862 48.2498C255.962 49.9125 253.507 50.8627 250.419 50.8627ZM250.578 38.4318C252.478 38.4318 253.982 37.7192 255.17 36.3732C256.437 35.0271 256.991 33.2852 256.991 31.0683C256.991 28.9305 256.358 27.1885 255.17 25.8425C253.982 24.4965 252.399 23.7839 250.578 23.7839C248.757 23.7839 247.252 24.4965 245.985 25.8425C244.719 27.1885 244.164 28.9305 244.164 31.0683C244.164 33.2061 244.798 34.948 245.985 36.294C247.252 37.7984 248.757 38.4318 250.578 38.4318Z" fill="#676C72"/>
<path d="M270.135 14.0449C270.135 14.7575 269.897 15.391 269.343 15.9452C268.789 16.4994 268.155 16.737 267.443 16.737C266.73 16.737 266.097 16.4994 265.543 15.9452C264.988 15.391 264.751 14.7575 264.751 14.0449C264.751 13.3323 264.988 12.6989 265.543 12.1447C266.097 11.5904 266.73 11.3529 267.443 11.3529C268.155 11.3529 268.789 11.5904 269.343 12.1447C269.897 12.6989 270.135 13.3323 270.135 14.0449ZM269.343 21.0126V41.2029H265.543V21.0126H269.343Z" fill="#676C72"/>
<path d="M283.199 41.9157C280.19 41.9157 277.815 40.8864 275.835 38.8278C273.935 36.7692 272.985 34.2355 272.985 31.1475C272.985 28.0596 273.935 25.5259 275.756 23.4673C277.656 21.4087 280.032 20.3794 282.961 20.3794C285.97 20.3794 288.345 21.3295 290.087 23.309C291.829 25.2092 292.779 27.9804 292.779 31.4643L292.7 31.8601H276.785C276.865 33.8396 277.498 35.4231 278.765 36.6108C280.032 37.7985 281.536 38.4319 283.278 38.4319C285.732 38.4319 287.633 37.2442 288.979 34.7897L292.383 36.4525C291.512 38.1944 290.246 39.4612 288.583 40.4905C287.078 41.4406 285.257 41.9157 283.199 41.9157ZM277.102 28.693H288.662C288.583 27.2678 287.949 26.1594 286.92 25.2092C285.891 24.2591 284.545 23.8632 282.803 23.8632C281.378 23.8632 280.111 24.3383 279.082 25.2092C278.131 26.0802 277.498 27.2678 277.102 28.693Z" fill="#676C72"/>
<path d="M300.063 41.2822H296.262V21.0919H299.904V24.4174H300.063C300.459 23.3089 301.25 22.438 302.438 21.6462C303.626 20.8544 304.813 20.5377 306.001 20.5377C307.11 20.5377 308.06 20.6961 308.772 21.0128L307.585 24.6549C307.11 24.4966 306.397 24.3382 305.368 24.3382C303.942 24.3382 302.676 24.8925 301.646 26.0801C300.617 27.2678 300.063 28.6138 300.063 30.1182V41.2822Z" fill="#676C72"/>
<path d="M325.875 35.6606C325.875 37.4025 325.083 38.9069 323.579 40.0945C322.075 41.2822 320.095 41.9156 317.799 41.9156C315.741 41.9156 313.999 41.3614 312.415 40.3321C310.911 39.3028 309.802 37.8775 309.09 36.1356L312.494 34.7105C312.969 35.8981 313.682 36.8483 314.632 37.5609C315.582 38.2735 316.611 38.5902 317.72 38.5902C318.908 38.5902 319.937 38.3526 320.729 37.7984C321.52 37.2441 321.916 36.6899 321.916 35.9773C321.916 34.7105 320.887 33.7603 318.908 33.1269L315.424 32.2559C311.465 31.2266 309.485 29.4056 309.485 26.5552C309.485 24.7341 310.198 23.2297 311.702 22.1212C313.207 21.0127 315.107 20.4585 317.482 20.4585C319.304 20.4585 320.887 20.8544 322.312 21.7253C323.737 22.5963 324.767 23.7048 325.321 25.13L321.916 26.5552C321.52 25.6842 320.887 25.0508 320.016 24.5757C319.145 24.1007 318.195 23.8631 317.087 23.8631C316.057 23.8631 315.186 24.1007 314.395 24.5757C313.603 25.0508 313.207 25.6842 313.207 26.3968C313.207 27.5845 314.315 28.3763 316.453 28.8513L319.541 29.6431C323.896 30.5932 325.875 32.5727 325.875 35.6606Z" fill="#676C72"/>
<path d="M132.286 27.6637C132.286 31.7809 131.099 35.1064 128.644 37.5609C125.873 40.4904 122.31 41.9156 117.797 41.9156C113.521 41.9156 109.879 40.4112 106.87 37.4817C103.861 34.4729 102.436 30.8308 102.436 26.476C102.436 22.1212 103.941 18.4791 106.87 15.4703C109.879 12.4616 113.442 11.0364 117.797 11.0364C119.935 11.0364 121.993 11.4323 123.973 12.224C125.873 13.0158 127.456 14.0451 128.723 15.4703L126.031 18.1624C125.16 17.0539 123.973 16.1829 122.468 15.5495C121.043 14.9161 119.459 14.5994 117.797 14.5994C114.55 14.5994 111.858 15.7078 109.641 17.9248C107.424 20.221 106.316 22.9922 106.316 26.3968C106.316 29.8015 107.424 32.5727 109.641 34.8688C111.858 37.0858 114.63 38.1943 117.797 38.1943C120.726 38.1943 123.181 37.4025 125.16 35.7398C127.14 34.077 128.248 31.7809 128.565 28.9305H117.797V25.3675H132.128C132.207 26.2385 132.286 26.9511 132.286 27.6637Z" fill="#676C72"/>
<path d="M136.958 41.2822V11.749H145.984C150.497 11.749 154.139 13.0951 156.831 15.8663C159.602 18.5583 160.948 22.1213 160.948 26.5552C160.948 30.9892 159.602 34.5522 156.831 37.2442C154.06 39.9362 150.497 41.2822 145.984 41.2822H136.958ZM140.758 15.3912V37.6401H145.984C149.388 37.6401 152.16 36.6899 154.139 34.7105C156.118 32.7311 157.148 30.039 157.148 26.5552C157.148 23.0714 156.118 20.3794 154.139 18.3999C152.16 16.4205 149.468 15.3912 145.984 15.3912H140.758Z" fill="#676C72"/>
<path d="M193.886 27.6637C193.886 31.7809 192.698 35.1064 190.244 37.5609C187.473 40.4904 183.91 41.9156 179.397 41.9156C175.121 41.9156 171.479 40.4112 168.47 37.4817C165.461 34.4729 164.036 30.8308 164.036 26.476C164.036 22.1212 165.54 18.4791 168.47 15.4703C171.479 12.4616 175.042 11.0364 179.397 11.0364C181.534 11.0364 183.593 11.4323 185.572 12.224C187.473 13.0158 189.056 14.0451 190.323 15.4703L187.631 18.1624C186.76 17.0539 185.572 16.1829 184.068 15.5495C182.643 14.9161 181.059 14.5994 179.397 14.5994C176.15 14.5994 173.458 15.7078 171.241 17.9248C169.024 20.221 167.916 22.9922 167.916 26.3968C167.916 29.8015 169.024 32.5727 171.241 34.8688C173.458 37.0858 176.229 38.1943 179.397 38.1943C182.326 38.1943 184.781 37.4025 186.76 35.7398C188.74 34.077 189.848 31.7809 190.165 28.9305H179.397V25.3675H193.728C193.807 26.2385 193.886 26.9511 193.886 27.6637Z" fill="#676C72"/>
<path d="M208.06 41.2822H203.863L215.027 11.749H219.303L230.467 41.2822H226.271L223.42 33.2853H210.989L208.06 41.2822ZM217.086 16.4205L212.256 29.7223H222.074L217.244 16.4205H217.086Z" fill="#676C72"/>
<path d="M237.038 11.749V41.2822H233.237V11.749H237.038Z" fill="#676C72"/>
<path d="M250.419 50.8627C249.311 50.8627 248.202 50.7043 247.252 50.4668C246.223 50.1501 245.352 49.7542 244.56 49.2791C243.768 48.7249 243.056 48.1706 242.502 47.458C241.947 46.7454 241.472 45.9537 241.156 45.0827L244.719 43.5783C245.114 44.766 245.827 45.7161 246.856 46.4287C247.886 47.1413 249.073 47.5372 250.419 47.5372C252.478 47.5372 254.061 46.9038 255.249 45.7161C256.437 44.4493 256.991 42.7865 256.991 40.5696V38.6693H256.833C256.12 39.7778 255.17 40.5696 253.903 41.203C252.715 41.8364 251.369 42.1531 249.944 42.1531C247.331 42.1531 245.035 41.1238 243.135 39.0652C241.235 36.9274 240.364 34.3937 240.364 31.385C240.364 28.3762 241.314 25.8425 243.135 23.7839C245.035 21.7253 247.331 20.6168 249.944 20.6168C251.369 20.6168 252.715 20.9335 253.903 21.5669C255.091 22.2004 256.12 23.0713 256.833 24.1006H256.991V21.3294H260.633V40.6488C260.633 43.895 259.683 46.4287 257.862 48.2498C255.962 49.9125 253.507 50.8627 250.419 50.8627ZM250.578 38.4318C252.478 38.4318 253.982 37.7192 255.17 36.3732C256.437 35.0271 256.991 33.2852 256.991 31.0683C256.991 28.9305 256.358 27.1885 255.17 25.8425C253.982 24.4965 252.399 23.7839 250.578 23.7839C248.757 23.7839 247.252 24.4965 245.985 25.8425C244.719 27.1885 244.164 28.9305 244.164 31.0683C244.164 33.2061 244.798 34.948 245.985 36.294C247.252 37.7984 248.757 38.4318 250.578 38.4318Z" fill="#676C72"/>
<path d="M270.135 14.0449C270.135 14.7575 269.897 15.391 269.343 15.9452C268.789 16.4994 268.155 16.737 267.443 16.737C266.73 16.737 266.097 16.4994 265.543 15.9452C264.988 15.391 264.751 14.7575 264.751 14.0449C264.751 13.3323 264.988 12.6989 265.543 12.1447C266.097 11.5904 266.73 11.3529 267.443 11.3529C268.155 11.3529 268.789 11.5904 269.343 12.1447C269.897 12.6989 270.135 13.3323 270.135 14.0449ZM269.343 21.0126V41.2029H265.543V21.0126H269.343Z" fill="#676C72"/>
<path d="M283.199 41.9157C280.19 41.9157 277.815 40.8864 275.835 38.8278C273.935 36.7692 272.985 34.2355 272.985 31.1475C272.985 28.0596 273.935 25.5259 275.756 23.4673C277.656 21.4087 280.032 20.3794 282.961 20.3794C285.97 20.3794 288.345 21.3295 290.087 23.309C291.829 25.2092 292.779 27.9804 292.779 31.4643L292.7 31.8601H276.785C276.865 33.8396 277.498 35.4231 278.765 36.6108C280.032 37.7985 281.536 38.4319 283.278 38.4319C285.732 38.4319 287.633 37.2442 288.979 34.7897L292.383 36.4525C291.512 38.1944 290.246 39.4612 288.583 40.4905C287.078 41.4406 285.257 41.9157 283.199 41.9157ZM277.102 28.693H288.662C288.583 27.2678 287.949 26.1594 286.92 25.2092C285.891 24.2591 284.545 23.8632 282.803 23.8632C281.378 23.8632 280.111 24.3383 279.082 25.2092C278.131 26.0802 277.498 27.2678 277.102 28.693Z" fill="#676C72"/>
<path d="M300.063 41.2822H296.262V21.0919H299.904V24.4174H300.063C300.459 23.3089 301.25 22.438 302.438 21.6462C303.626 20.8544 304.813 20.5377 306.001 20.5377C307.11 20.5377 308.06 20.6961 308.772 21.0128L307.585 24.6549C307.11 24.4966 306.397 24.3382 305.368 24.3382C303.942 24.3382 302.676 24.8925 301.646 26.0801C300.617 27.2678 300.063 28.6138 300.063 30.1182V41.2822Z" fill="#676C72"/>
<path d="M325.875 35.6606C325.875 37.4025 325.083 38.9069 323.579 40.0945C322.075 41.2822 320.095 41.9156 317.799 41.9156C315.741 41.9156 313.999 41.3614 312.415 40.3321C310.911 39.3028 309.802 37.8775 309.09 36.1356L312.494 34.7105C312.969 35.8981 313.682 36.8483 314.632 37.5609C315.582 38.2735 316.611 38.5902 317.72 38.5902C318.908 38.5902 319.937 38.3526 320.729 37.7984C321.52 37.2441 321.916 36.6899 321.916 35.9773C321.916 34.7105 320.887 33.7603 318.908 33.1269L315.424 32.2559C311.465 31.2266 309.485 29.4056 309.485 26.5552C309.485 24.7341 310.198 23.2297 311.702 22.1212C313.207 21.0127 315.107 20.4585 317.482 20.4585C319.304 20.4585 320.887 20.8544 322.312 21.7253C323.737 22.5963 324.767 23.7048 325.321 25.13L321.916 26.5552C321.52 25.6842 320.887 25.0508 320.016 24.5757C319.145 24.1007 318.195 23.8631 317.087 23.8631C316.057 23.8631 315.186 24.1007 314.395 24.5757C313.603 25.0508 313.207 25.6842 313.207 26.3968C313.207 27.5845 314.315 28.3763 316.453 28.8513L319.541 29.6431C323.896 30.5932 325.875 32.5727 325.875 35.6606Z" fill="#676C72"/>
<path fill-rule="evenodd" clip-rule="evenodd" d="M27.2958 6.76068L3.54257 20.4584C0.296296 22.3587 -0.812189 26.4759 1.08807 29.7222C2.98833 32.9685 7.10556 34.077 10.3518 32.1767L34.1051 18.479C37.3514 16.5787 38.4599 12.4615 36.5596 9.21519C34.7385 5.96891 30.5421 4.86042 27.2958 6.76068Z" fill="#EA4334"/>
<path fill-rule="evenodd" clip-rule="evenodd" d="M33.9467 34.3145L10.1934 20.6168C6.94712 18.7165 2.75071 19.825 0.929625 23.0713C-0.970637 26.3175 0.137849 30.514 3.38413 32.335L27.1374 46.0328C30.3837 47.933 34.5801 46.8245 36.4012 43.5782C38.3014 40.332 37.193 36.1356 33.9467 34.3145Z" fill="#4285F4"/>
<path fill-rule="evenodd" clip-rule="evenodd" d="M49.7816 34.5519L73.5349 20.8542C76.7811 18.9539 80.9776 20.0624 82.7986 23.3087C84.6989 26.555 83.5904 30.7514 80.3441 32.5724L56.5909 46.2702C53.3446 48.1704 49.1482 47.0619 47.3271 43.8156C45.4268 40.5694 46.5353 36.373 49.7816 34.5519Z" fill="#FCBC05"/>
<path fill-rule="evenodd" clip-rule="evenodd" d="M56.8287 6.9981L80.5819 20.6958C83.8282 22.5961 84.9367 26.7133 83.0364 29.9596C81.1362 33.2059 77.0189 34.3143 73.7727 32.4141L50.0194 18.7164C46.7731 16.8161 45.6646 12.6989 47.5649 9.45261C49.386 6.20633 53.5824 5.09784 56.8287 6.9981Z" fill="#0D9D58"/>
<path d="M410.119 51.3377H394.837C386.207 47.5372 379.556 40.9655 374.806 31.7017C374.885 31.5433 374.885 31.385 374.806 31.2266C373.697 22.913 373.38 12.8574 374.014 2.96025C374.093 2.32683 373.539 1.6934 372.905 1.6934C372.272 1.61422 371.638 2.16848 371.638 2.80191C371.163 10.2446 371.243 17.8456 371.718 24.6549C370.688 21.7253 369.738 18.6374 369.026 15.3119C369.026 15.2328 369.026 15.1536 368.946 15.1536C369.342 10.7988 369.976 6.20653 371.005 1.45588C371.163 0.822458 370.688 0.189047 370.055 0.0306922C369.421 -0.127663 368.788 0.347388 368.63 0.980808C367.917 4.30626 367.363 7.55256 366.967 10.7197C366.729 10.7988 366.571 11.0363 366.413 11.1947C365.225 10.9572 364.037 10.9572 362.85 11.1947C362.771 10.9572 362.691 10.7988 362.454 10.6405C361.979 7.3942 361.266 4.1479 360.316 0.901626C360.158 0.268205 359.445 -0.127682 358.812 0.10985C358.178 0.268205 357.782 0.980822 358.02 1.61424C359.287 5.96901 360.078 10.4029 360.474 14.7577C360.474 14.8369 360.474 14.9161 360.474 14.9952C360.474 14.9952 360.474 14.9952 360.474 15.0744C360.474 15.1536 360.474 15.2328 360.474 15.2328C360.078 19.9834 358.97 24.4173 357.228 28.6138C357.941 21.4086 358.178 12.7783 357.862 2.96025C357.862 2.32683 357.307 1.77258 356.595 1.77258C355.961 1.77258 355.407 2.32683 355.407 3.03943C355.803 15.7078 355.328 26.2384 353.982 34.3937C353.982 34.4729 353.982 34.5521 353.982 34.6313C349.785 41.203 343.53 46.8246 335.375 51.5752H322.311C321.757 51.5752 321.281 52.0503 321.281 52.6046C321.281 53.1588 321.757 53.6339 322.311 53.6339H331.654H336.721H352.24H352.477H354.932H355.17H356.357H362.691H363.879H365.067H366.254H372.43H373.618H374.014H374.172H376.627H376.864H393.175H400.142H409.96C410.515 53.6339 410.99 53.1588 410.99 52.6046C411.069 51.7336 410.673 51.3377 410.119 51.3377ZM366.492 28.2179C366.65 30.3557 366.967 32.4143 367.284 34.3937C366.729 33.0477 366.254 31.7017 365.858 30.3557C366.096 29.6431 366.254 28.9305 366.492 28.2179ZM363.008 14.5202C363.008 14.7577 363.008 14.916 363.087 15.1536C363.087 15.3911 363.087 15.5495 363.166 15.787H366.334C366.096 19.1125 365.621 22.5171 364.75 26.0009C364.037 23.1505 363.562 20.3001 363.325 17.5289C363.246 16.9747 363.246 16.4204 363.166 15.8662C363.166 15.6287 363.166 15.4703 363.166 15.2328C363.008 14.916 363.008 14.7577 363.008 14.5202ZM362.691 28.2179C362.85 28.9305 363.087 29.6431 363.325 30.3557C362.771 32.1768 362.058 33.9978 361.345 35.8189C361.979 33.2852 362.375 30.7515 362.691 28.2179ZM353.269 51.3377H340.047C350.102 44.766 356.911 36.6899 360.395 27.0302C359.524 35.1063 357.149 43.1824 353.269 51.3377ZM364.275 51.3377C364.433 50.2292 364.512 49.0416 364.671 47.8539C364.75 49.0416 364.908 50.2292 365.067 51.3377H364.275ZM373.064 51.3377H372.509H366.175C365.621 46.7454 365.304 41.5989 365.225 35.8189V35.7397C365.225 35.3438 365.225 34.8688 365.225 34.4729C365.225 33.8395 365.225 33.1269 365.225 32.4935C365.225 31.8601 365.225 31.2266 365.225 30.514C365.225 30.1973 364.988 29.8806 364.671 29.8806C364.354 29.8806 364.117 30.1181 364.117 30.514C364.117 31.2266 364.117 31.86 364.117 32.5726C364.117 33.2061 364.117 33.8395 364.117 34.4729C364.117 34.8688 364.117 35.3438 364.117 35.7397V35.8189C364.037 41.6781 363.721 46.8246 363.166 51.4169H356.674H356.199H355.961C356.199 50.8627 362.137 40.7279 364.037 35.8189C364.037 35.423 364.037 34.948 364.037 34.4729C364.037 33.8395 364.037 33.1269 364.037 32.4935C364.037 31.8601 364.037 31.2266 364.037 30.514C364.037 30.1973 364.275 29.8806 364.671 29.8806C364.988 29.8806 365.304 30.1181 365.304 30.514C365.304 31.1475 365.304 31.7809 365.304 32.4143C365.304 33.1269 365.304 33.8395 365.304 34.4729C365.304 34.948 365.304 35.423 365.304 35.8189C367.046 40.4904 373.064 51.1794 373.064 51.3377ZM375.993 51.3377H375.914C375.597 50.8626 375.36 50.3084 375.043 49.8333C370.926 42.0739 368.867 33.2061 368.709 23.1505C372.905 36.2148 379.952 45.7161 389.612 51.3377H375.993Z" fill="#676C72"/>
</svg>
