<svg width="117" height="50" viewBox="0 0 117 50" fill="none" xmlns="http://www.w3.org/2000/svg">
<g clip-path="url(#clip0_60_395)">
<path d="M14.8176 23.3943H28.5778C28.6638 23.7698 28.7278 24.15 28.7695 24.5329C28.8218 24.9783 28.848 25.4264 28.8481 25.8749C28.86 27.6087 28.5813 29.3323 28.0238 30.9741C27.476 32.5673 26.5936 34.0249 25.4359 35.249C24.1691 36.5904 22.6315 37.6471 20.9252 38.3487C19.173 39.081 17.1723 39.4472 14.923 39.4472C12.9478 39.4594 10.9891 39.0863 9.15671 38.3487C7.40142 37.646 5.8021 36.6037 4.45048 35.2816C3.10109 33.9519 2.02235 32.3732 1.27402 30.6328C0.497121 28.7757 0.0970459 26.7828 0.0970459 24.7697C0.0970459 22.7566 0.497121 20.7637 1.27402 18.9066C2.02235 17.1662 3.10109 15.5875 4.45048 14.2578C5.8021 12.9357 7.40142 11.8934 9.15671 11.1906C10.9891 10.4531 12.9478 10.08 14.923 10.0922C17.1992 10.0922 19.2325 10.4846 21.0229 11.2692C22.7663 12.024 24.3333 13.1339 25.6237 14.5281L21.9814 18.0976C21.1131 17.1662 20.0712 16.4134 18.9142 15.8815C17.7883 15.3703 16.4419 15.1147 14.8751 15.1147C13.6284 15.1098 12.3922 15.3427 11.2328 15.801C10.1074 16.2425 9.08062 16.9025 8.21164 17.7429C7.32935 18.6089 6.6293 19.6426 6.15278 20.7833C5.13238 23.339 5.13238 26.1889 6.15278 28.7446C6.63759 29.8933 7.35415 30.9296 8.25764 31.7888C9.13203 32.6256 10.1607 33.2845 11.2865 33.7288C12.4585 34.19 13.7077 34.4236 14.9671 34.417C16.456 34.417 17.7174 34.201 18.7513 33.769C19.7253 33.3747 20.6217 32.8106 21.3987 32.1032C21.9516 31.5928 22.4098 30.9886 22.7521 30.3185C23.1476 29.5548 23.444 28.7437 23.6339 27.9049H14.8157L14.8176 23.3943Z" fill="#EA4334" stroke="white" stroke-width="0.143775" stroke-miterlimit="10"/>
<path d="M44.786 38.6209C44.2557 38.6602 43.7232 38.6602 43.193 38.6209C43.1239 38.2796 43.3712 36.6617 42.9821 36.6713C42.7674 36.6598 42.7904 36.863 42.777 37.0144C42.739 37.5569 42.6537 38.0951 42.522 38.6228C41.5635 38.7052 41.5635 38.7052 41.5367 37.7678C41.4657 35.9792 41.4504 34.1964 41.345 32.4098C40.1948 34.3766 39.1903 36.4872 37.7851 38.3314C37.4573 38.9065 36.2074 38.548 35.5786 38.6554C35.0553 38.6975 35.663 38.0304 35.3869 37.6969C34.7447 38.4349 34.0604 38.7915 33.0501 38.6669C32.1562 38.6189 31.2603 38.6189 30.3663 38.6669C29.9983 38.6669 29.9178 38.5538 29.958 38.2125C30.027 37.6163 30.0769 37.0163 30.0979 36.4182C30.087 36.3038 30.1208 36.1895 30.1923 36.0994C30.2638 36.0094 30.3674 35.9505 30.4813 35.9351C35.2067 34.5549 40.5858 30.7056 40.5763 25.3341C40.7392 21.4656 40.5667 17.6029 40.304 13.744C40.2772 13.3433 40.375 13.2705 40.745 13.3126C41.4102 13.3874 41.414 13.3663 41.2836 12.7375C41.205 12.3541 41.1226 11.9707 41.0517 11.5873C41.0229 11.4455 40.9309 11.2365 41.1245 11.1867C41.3181 11.1369 41.2875 11.3784 41.3258 11.4857C41.53 12.0944 41.7746 12.6887 42.0581 13.2647C42.4549 14.3862 42.3744 15.5939 42.5834 16.7862C42.9898 16.6195 43.3291 16.4527 43.7125 16.4239C43.8562 16.4124 43.9521 16.3358 43.9368 16.1805C43.908 15.8968 44.0288 15.5958 43.8217 15.3293C43.803 15.3085 43.7886 15.2841 43.7796 15.2575C43.7705 15.231 43.767 15.2028 43.7691 15.1749C43.7713 15.1469 43.7791 15.1197 43.7921 15.0948C43.8051 15.07 43.823 15.048 43.8447 15.0303C44.2032 14.8942 44.1342 15.2565 44.0575 15.4693C44.0301 15.7181 44.0237 15.9689 44.0384 16.2188C44.0786 16.6022 44.439 16.4239 44.6422 16.4949C45.2959 16.7249 45.3074 16.7019 45.3918 16.0079C45.5336 15.1606 45.5068 14.2692 45.7387 13.443C46.0734 12.7766 46.3604 12.0873 46.5975 11.3803C46.6263 11.2941 46.5975 11.11 46.7758 11.1637C47.0653 11.2135 46.5573 12.726 46.542 13.0117C46.3272 13.9031 47.8168 12.5784 47.556 14.0986C47.6845 19.9781 45.4857 27.2454 50.2858 31.7657C52.2565 33.8034 54.6566 35.1223 57.3615 35.9083C57.6912 36.0061 57.7986 36.1479 57.8062 36.4834C57.8235 37.0968 57.8848 37.7084 57.9481 38.3199C57.9749 38.5844 57.8848 38.6573 57.6279 38.6554C56.3704 38.6439 55.1129 38.6458 53.8553 38.6554C53.2668 38.6304 52.9792 38.0189 52.5326 37.6854C52.2048 38.0132 52.8374 38.6688 52.3064 38.6554C51.7198 38.6554 51.1332 38.6554 50.5466 38.6554C50.3184 38.6554 50.2379 38.502 50.1325 38.3563C48.7946 36.4975 47.6245 34.5235 46.6359 32.4577C46.3713 34.2808 46.5017 36.1748 46.356 38.0285C46.379 38.8509 46.2563 38.6439 45.4646 38.6209C45.4646 38.0228 45.3074 37.4438 45.248 36.8534C45.2326 36.7154 45.2269 36.5007 45.0256 36.5083C44.648 36.6138 44.8339 38.2394 44.786 38.6209ZM44.786 22.196C44.8627 21.2375 44.9777 20.279 45.0045 19.332C44.9393 18.6745 45.6601 17.1601 44.832 16.8783C44.2194 16.6808 43.5587 16.6923 42.9533 16.9109C42.3782 17.1026 42.8326 17.9307 42.7751 18.3812C42.9955 20.0777 42.9073 21.8452 43.308 23.5034C43.4364 24.0958 44.3566 24.0785 44.6115 23.5417C44.8052 23.1008 44.7841 22.6523 44.7841 22.196H44.786Z" stroke="#4285F4" stroke-width="0.766799" stroke-miterlimit="10"/>
<path d="M95.9323 39.1001V9.93984H106.195C107.58 9.93984 108.87 10.1706 110.064 10.6322C111.286 11.0666 112.345 11.6911 113.241 12.5056C114.137 13.3201 114.843 14.2976 115.359 15.4379C115.875 16.5511 116.133 17.7865 116.133 19.1441C116.133 20.5288 115.875 21.7913 115.359 22.9316C114.843 24.0448 114.137 25.0087 113.241 25.8232C112.345 26.6378 111.286 27.2758 110.064 27.7374C108.87 28.1718 107.58 28.389 106.195 28.389H101.43V39.1001H95.9323ZM106.277 23.176C107.716 23.176 108.802 22.7687 109.535 21.9542C110.268 21.1397 110.635 20.2029 110.635 19.1441C110.635 18.6282 110.54 18.1259 110.35 17.6372C110.187 17.1484 109.915 16.7276 109.535 16.3746C109.182 15.9945 108.734 15.6959 108.191 15.4787C107.648 15.2614 107.01 15.1528 106.277 15.1528H101.43V23.176H106.277Z" fill="#F1B201"/>
<path d="M95.9323 39.1001H95.7406V39.2918H95.9323V39.1001ZM95.9323 9.93984V9.74814H95.7406V9.93984H95.9323ZM110.064 10.6322L109.995 10.8111L110 10.8128L110.064 10.6322ZM113.241 12.5056L113.37 12.3638L113.241 12.5056ZM115.359 15.4379L115.184 15.5169L115.185 15.5185L115.359 15.4379ZM115.359 22.9316L115.533 23.0122L115.534 23.0106L115.359 22.9316ZM113.241 25.8232L113.112 25.6814L113.241 25.8232ZM110.064 27.7374L110.13 27.9175L110.132 27.9167L110.064 27.7374ZM101.43 28.389V28.1973H101.239V28.389H101.43ZM101.43 39.1001V39.2918H101.622V39.1001H101.43ZM110.35 17.6372L110.167 17.6979L110.171 17.7066L110.35 17.6372ZM109.535 16.3746L109.395 16.5051L109.399 16.5103L109.405 16.5151L109.535 16.3746ZM108.191 15.4787L108.262 15.3007H108.262L108.191 15.4787ZM101.43 15.1528V14.9611H101.239V15.1528H101.43ZM101.43 23.176H101.239V23.3677H101.43V23.176ZM96.124 39.1001V9.93984H95.7406V39.1001H96.124ZM95.9323 10.1315H106.195V9.74814H95.9323V10.1315ZM106.195 10.1315C107.558 10.1315 108.824 10.3586 109.995 10.811L110.134 10.4534C108.915 9.98262 107.602 9.74814 106.195 9.74814V10.1315ZM110 10.8128C111.2 11.2393 112.236 11.8512 113.112 12.6475L113.37 12.3638C112.454 11.531 111.373 10.8939 110.129 10.4516L110 10.8128ZM113.112 12.6475C113.988 13.4438 114.679 14.3996 115.184 15.5169L115.534 15.3589C115.007 14.1955 114.286 13.1965 113.37 12.3638L113.112 12.6475ZM115.185 15.5185C115.688 16.6039 115.941 17.8113 115.941 19.1441H116.324C116.324 17.7617 116.062 16.4984 115.533 15.3573L115.185 15.5185ZM115.941 19.1441C115.941 20.5044 115.688 21.7396 115.184 22.8526L115.534 23.0106C116.062 21.8429 116.324 20.5531 116.324 19.1441H115.941ZM115.185 22.851C114.68 23.9413 113.989 24.8843 113.112 25.6814L113.37 25.9651C114.285 25.1331 115.006 24.1483 115.533 23.0122L115.185 22.851ZM113.112 25.6814C112.235 26.4784 111.198 27.1043 109.997 27.558L110.132 27.9167C111.375 27.4473 112.455 26.7971 113.37 25.9651L113.112 25.6814ZM109.999 27.5572C108.827 27.9833 107.56 28.1973 106.195 28.1973V28.5807C107.6 28.5807 108.913 28.3602 110.13 27.9175L109.999 27.5572ZM106.195 28.1973H101.43V28.5807H106.195V28.1973ZM101.239 28.389V39.1001H101.622V28.389H101.239ZM101.43 38.9084H95.9323V39.2918H101.43V38.9084ZM106.277 23.3677C107.752 23.3677 108.898 22.949 109.677 22.0824L109.393 21.8259C108.706 22.5884 107.68 22.9843 106.277 22.9843V23.3677ZM109.677 22.0824C110.441 21.234 110.826 20.2521 110.826 19.1441H110.443C110.443 20.1538 110.095 21.0453 109.393 21.8259L109.677 22.0824ZM110.826 19.1441C110.826 18.604 110.727 18.0782 110.528 17.5677L110.171 17.7066C110.352 18.1736 110.443 18.6523 110.443 19.1441H110.826ZM110.531 17.5765C110.358 17.0571 110.069 16.6089 109.665 16.2342L109.405 16.5151C109.761 16.8464 110.015 17.2398 110.168 17.6978L110.531 17.5765ZM109.675 16.2442C109.301 15.8408 108.828 15.5271 108.262 15.3007L108.12 15.6566C108.64 15.8647 109.063 16.1483 109.395 16.5051L109.675 16.2442ZM108.262 15.3007C107.692 15.0724 107.028 14.9611 106.277 14.9611V15.3445C106.992 15.3445 107.604 15.4505 108.12 15.6566L108.262 15.3007ZM106.277 14.9611H101.43V15.3445H106.277V14.9611ZM101.239 15.1528V23.176H101.622V15.1528H101.239ZM101.43 23.3677H106.277V22.9843H101.43V23.3677Z" fill="white"/>
<path d="M60.9323 9.83974H66.349L75.2681 25.2751H75.5939L84.513 9.83974H89.9704V39H84.513V24.6235L84.8388 19.7363H84.513L77.1008 32.8096H73.8019L66.349 19.7363H66.0231L66.349 24.6235V39H60.9323V9.83974Z" fill="#0D9D58"/>
<path d="M60.9323 9.83974V9.64804H60.7406V9.83974H60.9323ZM66.349 9.83974L66.5149 9.74383L66.4596 9.64804H66.349V9.83974ZM75.2681 25.2751L75.1021 25.371L75.1575 25.4668H75.2681V25.2751ZM75.5939 25.2751V25.4668H75.7045L75.7599 25.371L75.5939 25.2751ZM84.513 9.83974V9.64804H84.4024L84.347 9.74383L84.513 9.83974ZM89.9704 9.83974H90.1621V9.64804H89.9704V9.83974ZM89.9704 39V39.1917H90.1621V39H89.9704ZM84.513 39H84.3213V39.1917H84.513V39ZM84.513 24.6235L84.3213 24.6107V24.6235H84.513ZM84.8388 19.7363L85.0301 19.7491L85.0437 19.5446H84.8388V19.7363ZM84.513 19.7363V19.5446H84.4014L84.3463 19.6418L84.513 19.7363ZM77.1008 32.8096V33.0013H77.2125L77.2675 32.9041L77.1008 32.8096ZM73.8019 32.8096L73.6354 32.9045L73.6906 33.0013H73.8019V32.8096ZM66.349 19.7363L66.5155 19.6414L66.4603 19.5446H66.349V19.7363ZM66.0231 19.7363V19.5446H65.8182L65.8319 19.7491L66.0231 19.7363ZM66.349 24.6235H66.5411L66.5402 24.6108L66.349 24.6235ZM66.349 39V39.1917H66.5407V39H66.349ZM60.9323 39H60.7406V39.1917H60.9323V39ZM60.9323 10.0314H66.349V9.64804H60.9323V10.0314ZM66.183 9.93565L75.1021 25.371L75.4341 25.1792L66.5149 9.74383L66.183 9.93565ZM75.2681 25.4668H75.5939V25.0834H75.2681V25.4668ZM75.7599 25.371L84.679 9.93565L84.347 9.74383L75.4279 25.1792L75.7599 25.371ZM84.513 10.0314H89.9704V9.64804H84.513V10.0314ZM89.7787 9.83974V39H90.1621V9.83974H89.7787ZM89.9704 38.8083H84.513V39.1917H89.9704V38.8083ZM84.7047 39V24.6235H84.3213V39H84.7047ZM84.7043 24.6363L85.0301 19.7491L84.6476 19.7236L84.3218 24.6108L84.7043 24.6363ZM84.8388 19.5446H84.513V19.928H84.8388V19.5446ZM84.3463 19.6418L76.934 32.715L77.2675 32.9041L84.6798 19.8309L84.3463 19.6418ZM77.1008 32.6179H73.8019V33.0013H77.1008V32.6179ZM73.9685 32.7146L66.5155 19.6414L66.1824 19.8312L73.6354 32.9045L73.9685 32.7146ZM66.349 19.5446H66.0231V19.928H66.349V19.5446ZM65.8319 19.7491L66.1577 24.6363L66.5402 24.6108L66.2144 19.7236L65.8319 19.7491ZM66.1573 24.6235V39H66.5407V24.6235H66.1573ZM66.349 38.8083H60.9323V39.1917H66.349V38.8083ZM61.124 39V9.83974H60.7406V39H61.124Z" fill="white"/>
</g>
<defs>
<clipPath id="clip0_60_395">
<rect width="117" height="49.1001" fill="white"/>
</clipPath>
</defs>
</svg>
