<svg width="90" height="89" viewBox="0 0 90 89" fill="none" xmlns="http://www.w3.org/2000/svg">
<path d="M45 0C20.62 0 0.833374 19.7867 0.833374 44.1667C0.833374 68.5467 20.62 88.3333 45 88.3333H67.0834V79.5H45C25.8317 79.5 9.66671 63.335 9.66671 44.1667C9.66671 24.9983 25.8317 8.83333 45 8.83333C64.1684 8.83333 80.3334 24.9983 80.3334 44.1667V50.4825C80.3334 53.9717 77.1975 57.4167 73.7084 57.4167C70.2192 57.4167 67.0834 53.9717 67.0834 50.4825V44.1667C67.0834 31.9767 57.19 22.0833 45 22.0833C32.81 22.0833 22.9167 31.9767 22.9167 44.1667C22.9167 56.3567 32.81 66.25 45 66.25C51.095 66.25 56.66 63.7767 60.635 59.7575C63.5059 63.6883 68.4525 66.25 73.7084 66.25C82.4092 66.25 89.1667 59.1833 89.1667 50.4825V44.1667C89.1667 19.7867 69.38 0 45 0ZM45 57.4167C37.6684 57.4167 31.75 51.4983 31.75 44.1667C31.75 36.835 37.6684 30.9167 45 30.9167C52.3317 30.9167 58.25 36.835 58.25 44.1667C58.25 51.4983 52.3317 57.4167 45 57.4167Z" fill="#5F6368"/>
</svg>
