<svg width="90" height="89" viewBox="0 0 90 89" fill="none" xmlns="http://www.w3.org/2000/svg">
<path d="M84.0124 88.33C73.4619 88.33 63.1779 85.9778 53.1607 81.2734C43.1401 76.5723 34.2662 70.3565 26.539 62.626C18.8085 54.8987 12.5927 46.0248 7.89155 36.0043C3.18716 25.987 0.834961 15.7031 0.834961 5.15258C0.834961 3.68042 1.32568 2.45361 2.30713 1.47217C3.28857 0.490722 4.51538 0 5.98755 0H25.8618C27.0068 0 28.0292 0.368041 28.9288 1.10412C29.8285 1.84021 30.3601 2.78076 30.5237 3.92578L33.7133 21.1011C33.8769 22.2461 33.8573 23.288 33.6545 24.227C33.4484 25.1691 32.9773 26.0083 32.2412 26.7444L20.3412 38.7671C23.7762 44.6557 28.0913 50.1763 33.2864 55.3289C38.4783 60.4815 44.1821 64.9389 50.3979 68.7011L61.9299 57.1691C62.666 56.4331 63.6278 55.8802 64.8153 55.5105C65.9996 55.1441 67.1642 55.0427 68.3093 55.2063L85.2392 58.6413C86.3842 58.8867 87.3248 59.4379 88.0608 60.295C88.7969 61.1554 89.165 62.1581 89.165 63.3032V83.1774C89.165 84.6496 88.6742 85.8764 87.6928 86.8578C86.7114 87.8393 85.4845 88.33 84.0124 88.33ZM15.6793 29.4433L23.7762 21.3464L21.6907 9.81444H10.7721C11.181 13.1677 11.7535 16.4801 12.4896 19.7516C13.2257 23.0231 14.2889 26.2536 15.6793 29.4433ZM59.5989 73.363C62.7886 74.7534 66.0405 75.8575 69.3545 76.6753C72.6652 77.4932 75.9972 78.0248 79.3505 78.2702V67.4743L67.8185 65.1434L59.5989 73.363Z" fill="#5F6368"/>
</svg>
